<mxfile host="app.diagrams.net" agent="Mozilla/5.0 (Windows NT 10.0; Win64; x64; rv:142.0) Gecko/20100101 Firefox/142.0" version="28.2.0">
  <diagram name="Page-1" id="JPGF1RDlzG9vodBcwCJd">
    <mxGraphModel dx="1224" dy="1109" grid="1" gridSize="10" guides="1" tooltips="1" connect="1" arrows="1" fold="1" page="1" pageScale="1" pageWidth="850" pageHeight="1100" math="0" shadow="0">
      <root>
        <mxCell id="0" />
        <mxCell id="1" parent="0" />
        <mxCell id="lQsZN8vgZ2ZVpaPELj6J-12" style="edgeStyle=orthogonalEdgeStyle;rounded=0;orthogonalLoop=1;jettySize=auto;html=1;exitX=0.5;exitY=1;exitDx=0;exitDy=0;entryX=0.5;entryY=0;entryDx=0;entryDy=0;" edge="1" parent="1" source="lQsZN8vgZ2ZVpaPELj6J-1" target="lQsZN8vgZ2ZVpaPELj6J-6">
          <mxGeometry relative="1" as="geometry" />
        </mxCell>
        <mxCell id="lQsZN8vgZ2ZVpaPELj6J-24" style="edgeStyle=orthogonalEdgeStyle;rounded=0;orthogonalLoop=1;jettySize=auto;html=1;exitX=1;exitY=0.5;exitDx=0;exitDy=0;entryX=0;entryY=0.5;entryDx=0;entryDy=0;" edge="1" parent="1" source="lQsZN8vgZ2ZVpaPELj6J-1" target="lQsZN8vgZ2ZVpaPELj6J-23">
          <mxGeometry relative="1" as="geometry" />
        </mxCell>
        <mxCell id="lQsZN8vgZ2ZVpaPELj6J-1" value="Start" style="ellipse;whiteSpace=wrap;html=1;" vertex="1" parent="1">
          <mxGeometry x="40" y="40" width="120" height="80" as="geometry" />
        </mxCell>
        <mxCell id="lQsZN8vgZ2ZVpaPELj6J-2" value="End" style="ellipse;whiteSpace=wrap;html=1;" vertex="1" parent="1">
          <mxGeometry x="680" y="880" width="120" height="80" as="geometry" />
        </mxCell>
        <mxCell id="lQsZN8vgZ2ZVpaPELj6J-11" style="edgeStyle=orthogonalEdgeStyle;rounded=0;orthogonalLoop=1;jettySize=auto;html=1;exitX=0.5;exitY=1;exitDx=0;exitDy=0;entryX=0.5;entryY=0;entryDx=0;entryDy=0;" edge="1" parent="1" source="lQsZN8vgZ2ZVpaPELj6J-6" target="lQsZN8vgZ2ZVpaPELj6J-7">
          <mxGeometry relative="1" as="geometry" />
        </mxCell>
        <mxCell id="lQsZN8vgZ2ZVpaPELj6J-6" value="Check temperature" style="shape=parallelogram;perimeter=parallelogramPerimeter;whiteSpace=wrap;html=1;fixedSize=1;" vertex="1" parent="1">
          <mxGeometry x="40" y="160" width="120" height="60" as="geometry" />
        </mxCell>
        <mxCell id="lQsZN8vgZ2ZVpaPELj6J-10" style="edgeStyle=orthogonalEdgeStyle;rounded=0;orthogonalLoop=1;jettySize=auto;html=1;exitX=1;exitY=0.5;exitDx=0;exitDy=0;entryX=0;entryY=0.5;entryDx=0;entryDy=0;" edge="1" parent="1" source="lQsZN8vgZ2ZVpaPELj6J-7" target="lQsZN8vgZ2ZVpaPELj6J-8">
          <mxGeometry relative="1" as="geometry" />
        </mxCell>
        <mxCell id="lQsZN8vgZ2ZVpaPELj6J-16" style="edgeStyle=orthogonalEdgeStyle;rounded=0;orthogonalLoop=1;jettySize=auto;html=1;exitX=0.5;exitY=1;exitDx=0;exitDy=0;entryX=0.5;entryY=0;entryDx=0;entryDy=0;" edge="1" parent="1" source="lQsZN8vgZ2ZVpaPELj6J-7" target="lQsZN8vgZ2ZVpaPELj6J-15">
          <mxGeometry relative="1" as="geometry" />
        </mxCell>
        <mxCell id="lQsZN8vgZ2ZVpaPELj6J-7" value="Is the temperature outside of the defined range? (&amp;lt;16, &amp;gt;28)" style="rhombus;whiteSpace=wrap;html=1;" vertex="1" parent="1">
          <mxGeometry x="40" y="280" width="120" height="80" as="geometry" />
        </mxCell>
        <mxCell id="lQsZN8vgZ2ZVpaPELj6J-33" style="edgeStyle=orthogonalEdgeStyle;rounded=0;orthogonalLoop=1;jettySize=auto;html=1;entryX=0;entryY=0.5;entryDx=0;entryDy=0;" edge="1" parent="1" source="lQsZN8vgZ2ZVpaPELj6J-8" target="lQsZN8vgZ2ZVpaPELj6J-19">
          <mxGeometry relative="1" as="geometry" />
        </mxCell>
        <mxCell id="lQsZN8vgZ2ZVpaPELj6J-8" value="&lt;div&gt;Display temp warning&lt;/div&gt;&lt;div&gt;Deny access&lt;/div&gt;" style="rounded=0;whiteSpace=wrap;html=1;" vertex="1" parent="1">
          <mxGeometry x="240" y="290" width="120" height="60" as="geometry" />
        </mxCell>
        <mxCell id="lQsZN8vgZ2ZVpaPELj6J-18" style="edgeStyle=orthogonalEdgeStyle;rounded=0;orthogonalLoop=1;jettySize=auto;html=1;exitX=1;exitY=0.5;exitDx=0;exitDy=0;entryX=0;entryY=0.5;entryDx=0;entryDy=0;" edge="1" parent="1" source="lQsZN8vgZ2ZVpaPELj6J-13" target="lQsZN8vgZ2ZVpaPELj6J-14">
          <mxGeometry relative="1" as="geometry" />
        </mxCell>
        <mxCell id="lQsZN8vgZ2ZVpaPELj6J-47" style="edgeStyle=orthogonalEdgeStyle;rounded=0;orthogonalLoop=1;jettySize=auto;html=1;exitX=0.5;exitY=1;exitDx=0;exitDy=0;entryX=0.5;entryY=0;entryDx=0;entryDy=0;" edge="1" parent="1" source="lQsZN8vgZ2ZVpaPELj6J-13" target="lQsZN8vgZ2ZVpaPELj6J-46">
          <mxGeometry relative="1" as="geometry" />
        </mxCell>
        <mxCell id="lQsZN8vgZ2ZVpaPELj6J-13" value="More than x people in room?" style="rhombus;whiteSpace=wrap;html=1;" vertex="1" parent="1">
          <mxGeometry x="40" y="640" width="120" height="80" as="geometry" />
        </mxCell>
        <mxCell id="lQsZN8vgZ2ZVpaPELj6J-39" style="edgeStyle=orthogonalEdgeStyle;rounded=0;orthogonalLoop=1;jettySize=auto;html=1;exitX=1;exitY=0.5;exitDx=0;exitDy=0;entryX=0;entryY=0.5;entryDx=0;entryDy=0;" edge="1" parent="1" source="lQsZN8vgZ2ZVpaPELj6J-14" target="lQsZN8vgZ2ZVpaPELj6J-34">
          <mxGeometry relative="1" as="geometry" />
        </mxCell>
        <mxCell id="lQsZN8vgZ2ZVpaPELj6J-14" value="&lt;div&gt;Display access warning&lt;/div&gt;&lt;div&gt;Deny entry&lt;/div&gt;" style="rounded=0;whiteSpace=wrap;html=1;" vertex="1" parent="1">
          <mxGeometry x="320" y="650" width="120" height="60" as="geometry" />
        </mxCell>
        <mxCell id="lQsZN8vgZ2ZVpaPELj6J-43" style="edgeStyle=orthogonalEdgeStyle;rounded=0;orthogonalLoop=1;jettySize=auto;html=1;exitX=0.5;exitY=1;exitDx=0;exitDy=0;entryX=0.5;entryY=0;entryDx=0;entryDy=0;" edge="1" parent="1" source="lQsZN8vgZ2ZVpaPELj6J-15" target="lQsZN8vgZ2ZVpaPELj6J-41">
          <mxGeometry relative="1" as="geometry" />
        </mxCell>
        <mxCell id="lQsZN8vgZ2ZVpaPELj6J-15" value="User swipes card" style="shape=parallelogram;perimeter=parallelogramPerimeter;whiteSpace=wrap;html=1;fixedSize=1;" vertex="1" parent="1">
          <mxGeometry x="40" y="410" width="120" height="60" as="geometry" />
        </mxCell>
        <mxCell id="lQsZN8vgZ2ZVpaPELj6J-38" style="edgeStyle=orthogonalEdgeStyle;rounded=0;orthogonalLoop=1;jettySize=auto;html=1;exitX=0.5;exitY=1;exitDx=0;exitDy=0;entryX=0.5;entryY=0;entryDx=0;entryDy=0;" edge="1" parent="1" source="lQsZN8vgZ2ZVpaPELj6J-19" target="lQsZN8vgZ2ZVpaPELj6J-34">
          <mxGeometry relative="1" as="geometry" />
        </mxCell>
        <mxCell id="lQsZN8vgZ2ZVpaPELj6J-19" value="" style="ellipse;whiteSpace=wrap;html=1;aspect=fixed;" vertex="1" parent="1">
          <mxGeometry x="735" y="315" width="10" height="10" as="geometry" />
        </mxCell>
        <mxCell id="lQsZN8vgZ2ZVpaPELj6J-31" style="edgeStyle=orthogonalEdgeStyle;rounded=0;orthogonalLoop=1;jettySize=auto;html=1;exitX=1;exitY=0.5;exitDx=0;exitDy=0;entryX=0;entryY=0.5;entryDx=0;entryDy=0;" edge="1" parent="1" source="lQsZN8vgZ2ZVpaPELj6J-23" target="lQsZN8vgZ2ZVpaPELj6J-30">
          <mxGeometry relative="1" as="geometry" />
        </mxCell>
        <mxCell id="lQsZN8vgZ2ZVpaPELj6J-45" style="edgeStyle=orthogonalEdgeStyle;rounded=0;orthogonalLoop=1;jettySize=auto;html=1;exitX=0.5;exitY=1;exitDx=0;exitDy=0;entryX=1;entryY=1;entryDx=0;entryDy=0;" edge="1" parent="1" source="lQsZN8vgZ2ZVpaPELj6J-23" target="lQsZN8vgZ2ZVpaPELj6J-1">
          <mxGeometry relative="1" as="geometry" />
        </mxCell>
        <mxCell id="lQsZN8vgZ2ZVpaPELj6J-23" value="Any equipment faults?" style="rhombus;whiteSpace=wrap;html=1;" vertex="1" parent="1">
          <mxGeometry x="240" y="40" width="120" height="80" as="geometry" />
        </mxCell>
        <mxCell id="lQsZN8vgZ2ZVpaPELj6J-32" style="edgeStyle=orthogonalEdgeStyle;rounded=0;orthogonalLoop=1;jettySize=auto;html=1;exitX=0.5;exitY=1;exitDx=0;exitDy=0;entryX=0.5;entryY=0;entryDx=0;entryDy=0;" edge="1" parent="1" source="lQsZN8vgZ2ZVpaPELj6J-30" target="lQsZN8vgZ2ZVpaPELj6J-19">
          <mxGeometry relative="1" as="geometry" />
        </mxCell>
        <mxCell id="lQsZN8vgZ2ZVpaPELj6J-30" value="&lt;div&gt;Alert IT&lt;/div&gt;&lt;div&gt;Display equipment warning&lt;/div&gt;" style="rounded=0;whiteSpace=wrap;html=1;" vertex="1" parent="1">
          <mxGeometry x="680" y="50" width="120" height="60" as="geometry" />
        </mxCell>
        <mxCell id="lQsZN8vgZ2ZVpaPELj6J-40" style="edgeStyle=orthogonalEdgeStyle;rounded=0;orthogonalLoop=1;jettySize=auto;html=1;exitX=0.5;exitY=1;exitDx=0;exitDy=0;entryX=0.5;entryY=0;entryDx=0;entryDy=0;" edge="1" parent="1" source="lQsZN8vgZ2ZVpaPELj6J-34" target="lQsZN8vgZ2ZVpaPELj6J-2">
          <mxGeometry relative="1" as="geometry" />
        </mxCell>
        <mxCell id="lQsZN8vgZ2ZVpaPELj6J-34" value="" style="ellipse;whiteSpace=wrap;html=1;aspect=fixed;" vertex="1" parent="1">
          <mxGeometry x="735" y="555" width="10" height="10" as="geometry" />
        </mxCell>
        <mxCell id="lQsZN8vgZ2ZVpaPELj6J-42" style="edgeStyle=orthogonalEdgeStyle;rounded=0;orthogonalLoop=1;jettySize=auto;html=1;exitX=1;exitY=0.5;exitDx=0;exitDy=0;entryX=0.5;entryY=0;entryDx=0;entryDy=0;" edge="1" parent="1" source="lQsZN8vgZ2ZVpaPELj6J-41" target="lQsZN8vgZ2ZVpaPELj6J-14">
          <mxGeometry relative="1" as="geometry" />
        </mxCell>
        <mxCell id="lQsZN8vgZ2ZVpaPELj6J-44" style="edgeStyle=orthogonalEdgeStyle;rounded=0;orthogonalLoop=1;jettySize=auto;html=1;exitX=0.5;exitY=1;exitDx=0;exitDy=0;entryX=0.5;entryY=0;entryDx=0;entryDy=0;" edge="1" parent="1" source="lQsZN8vgZ2ZVpaPELj6J-41" target="lQsZN8vgZ2ZVpaPELj6J-13">
          <mxGeometry relative="1" as="geometry" />
        </mxCell>
        <mxCell id="lQsZN8vgZ2ZVpaPELj6J-41" value="User allowed access?" style="rhombus;whiteSpace=wrap;html=1;" vertex="1" parent="1">
          <mxGeometry x="40" y="520" width="120" height="80" as="geometry" />
        </mxCell>
        <mxCell id="lQsZN8vgZ2ZVpaPELj6J-50" style="edgeStyle=orthogonalEdgeStyle;rounded=0;orthogonalLoop=1;jettySize=auto;html=1;exitX=0.5;exitY=1;exitDx=0;exitDy=0;entryX=0.5;entryY=0;entryDx=0;entryDy=0;" edge="1" parent="1" source="lQsZN8vgZ2ZVpaPELj6J-46" target="lQsZN8vgZ2ZVpaPELj6J-49">
          <mxGeometry relative="1" as="geometry" />
        </mxCell>
        <mxCell id="lQsZN8vgZ2ZVpaPELj6J-46" value="Allow Access" style="rounded=0;whiteSpace=wrap;html=1;" vertex="1" parent="1">
          <mxGeometry x="40" y="790" width="120" height="60" as="geometry" />
        </mxCell>
        <mxCell id="lQsZN8vgZ2ZVpaPELj6J-51" style="edgeStyle=orthogonalEdgeStyle;rounded=0;orthogonalLoop=1;jettySize=auto;html=1;exitX=1;exitY=0.5;exitDx=0;exitDy=0;entryX=0;entryY=0.5;entryDx=0;entryDy=0;" edge="1" parent="1" source="lQsZN8vgZ2ZVpaPELj6J-49" target="lQsZN8vgZ2ZVpaPELj6J-2">
          <mxGeometry relative="1" as="geometry" />
        </mxCell>
        <mxCell id="lQsZN8vgZ2ZVpaPELj6J-49" value="if student -&amp;gt; Add name to register" style="rounded=0;whiteSpace=wrap;html=1;" vertex="1" parent="1">
          <mxGeometry x="40" y="910" width="120" height="60" as="geometry" />
        </mxCell>
      </root>
    </mxGraphModel>
  </diagram>
</mxfile>
